<svg width="562" height="105" viewBox="0 0 562 105" fill="none" xmlns="http://www.w3.org/2000/svg">
<path fill-rule="evenodd" clip-rule="evenodd" d="M88.8034 56.8956C92.1367 54.9711 92.1367 50.1598 88.8034 48.2353L7.73633 1.43124C4.403 -0.493261 0.236335 1.91236 0.236335 5.76136L0.236333 51.5497L17.5255 36.7608L26.4568 44.3559L29.0589 41.6836L42.3504 53.2872L54.7276 42.6681L68.9334 52.2324L73.6452 49.4193L86.4814 58.2361L88.8034 56.8956ZM85.0998 59.0338L73.6452 53.2872L78.9559 62.581L85.0998 59.0338ZM78.6827 62.7387L55.4309 47.1689L48.1874 53.2872L57.8923 69.9544L29.0589 46.1844L26.4568 48.9271L17.5255 40.9803L3.60108 72.486L2.96815 61.234L0.236333 60.2708L0.236331 99.3695C0.236331 103.218 4.40299 105.624 7.73633 103.7L78.6827 62.7387Z" fill="#A70000"/>
<path d="M135.588 88.0593C129.117 88.0593 123.169 86.5599 117.744 83.5613C112.384 80.5626 108.103 76.3906 104.9 71.0452C101.763 65.6346 100.194 59.5721 100.194 52.8577C100.194 46.1433 101.763 40.1134 104.9 34.768C108.103 29.4226 112.384 25.2505 117.744 22.2519C123.169 19.2532 129.117 17.7539 135.588 17.7539C142.059 17.7539 147.974 19.2532 153.333 22.2519C158.758 25.2505 163.007 29.4226 166.079 34.768C169.216 40.1134 170.785 46.1433 170.785 52.8577C170.785 59.5721 169.216 65.6346 166.079 71.0452C162.942 76.3906 158.693 80.5626 153.333 83.5613C147.974 86.5599 142.059 88.0593 135.588 88.0593ZM135.588 72.8053C141.078 72.8053 145.457 70.98 148.725 67.3295C152.059 63.6789 153.726 58.855 153.726 52.8577C153.726 46.7952 152.059 41.9713 148.725 38.3859C145.457 34.7354 141.078 32.9101 135.588 32.9101C130.032 32.9101 125.587 34.7028 122.254 38.2882C118.986 41.8735 117.352 46.73 117.352 52.8577C117.352 58.9202 118.986 63.7767 122.254 67.4272C125.587 71.0126 130.032 72.8053 135.588 72.8053Z" fill="black"/>
<path d="M196.583 18.7317V59.8002C196.583 63.9071 197.596 67.0687 199.623 69.2851C201.649 71.5015 204.623 72.6097 208.544 72.6097C212.466 72.6097 215.473 71.5015 217.564 69.2851C219.656 67.0687 220.702 63.9071 220.702 59.8002V18.7317H237.467V59.7024C237.467 65.8301 236.16 71.0126 233.545 75.2498C230.931 79.487 227.401 82.6813 222.957 84.8325C218.577 86.9837 213.675 88.0593 208.25 88.0593C202.825 88.0593 197.956 87.0163 193.642 84.9302C189.393 82.779 186.027 79.5848 183.544 75.3476C181.06 71.0452 179.818 65.8301 179.818 59.7024V18.7317H196.583Z" fill="black"/>
<path d="M298.751 18.7317V32.1279H280.515V87.3748H263.75V32.1279H245.514V18.7317H298.751Z" fill="black"/>
<path d="M323.931 74.4675H345.892V87.3748H307.165V18.7317H323.931V74.4675Z" fill="black"/>
<path d="M396.733 75.2498H371.046L366.928 87.3748H349.379L374.282 18.7317H393.694L418.597 87.3748H400.851L396.733 75.2498ZM392.419 62.3426L383.89 37.2126L375.458 62.3426H392.419Z" fill="black"/>
<path d="M487.747 87.3748H470.982L442.941 45.0351V87.3748H426.176V18.7317H442.941L470.982 61.267V18.7317H487.747V87.3748Z" fill="black"/>
<path d="M525.685 18.7317C532.94 18.7317 539.28 20.1659 544.705 23.0341C550.13 25.9024 554.313 29.9441 557.254 35.1591C560.261 40.309 561.764 46.2737 561.764 53.0533C561.764 59.7676 560.261 65.7323 557.254 70.9474C554.313 76.1624 550.097 80.2041 544.607 83.0724C539.182 85.9407 532.874 87.3748 525.685 87.3748H499.899V18.7317H525.685ZM524.606 72.903C530.946 72.903 535.881 71.1756 539.411 67.7206C542.94 64.2656 544.705 59.3765 544.705 53.0533C544.705 46.73 542.94 41.8083 539.411 38.2882C535.881 34.768 530.946 33.0079 524.606 33.0079H516.665V72.903H524.606Z" fill="black"/>
</svg>
