<svg width="92" height="104" viewBox="0 0 92 104" fill="none" xmlns="http://www.w3.org/2000/svg">
<g id="Property 1=Default">
<path id="Subtract" fill-rule="evenodd" clip-rule="evenodd" d="M88.567 56.1417C91.9004 54.2172 91.9004 49.4059 88.567 47.4814L7.50001 0.677334C4.16667 -1.24717 7.04403e-06 1.15845 6.87578e-06 5.00746L4.87431e-06 50.7957L17.2892 36.0069L26.2205 43.602L28.8225 40.9296L42.114 52.5333L54.4913 41.9142L68.697 51.4785L73.4088 48.6654L86.2451 57.4822L88.567 56.1417ZM84.8634 58.2799L73.4088 52.5333L78.7196 61.8271L84.8634 58.2799ZM78.4464 61.9848L55.1946 46.415L47.951 52.5333L57.6559 69.2005L28.8225 45.4305L26.2205 48.1732L17.2892 40.2264L3.36475 71.7321L2.73182 60.4801L4.4931e-06 59.5169L2.78404e-06 98.6156C2.6158e-06 102.465 4.16667 104.87 7.5 102.946L78.4464 61.9848Z" fill="#A70000"/>
</g>
</svg>
